<svg xmlns="http://www.w3.org/2000/svg" viewBox="0 0 1086.18 783.46"><defs><style>.cls-1{isolation:isolate;}.cls-2,.cls-32{fill:#422a2a;}.cls-3{font-size:12.41px;}.cls-13,.cls-27,.cls-3{fill:#6b5454;font-family:OpenSans-Light, OpenSans Light;}.cls-4{letter-spacing:0.01em;}.cls-5{letter-spacing:-0.01em;}.cls-6{letter-spacing:0em;}.cls-7{letter-spacing:0.01em;}.cls-8{letter-spacing:-0.02em;}.cls-9{letter-spacing:0em;}.cls-10{letter-spacing:-0.01em;}.cls-11{letter-spacing:-0.01em;}.cls-12{letter-spacing:-0.01em;}.cls-13{font-size:13.06px;}.cls-14{letter-spacing:-0.01em;}.cls-15{letter-spacing:-0.01em;}.cls-16{letter-spacing:-0.01em;}.cls-17{letter-spacing:0.02em;}.cls-18{letter-spacing:-0.03em;}.cls-19{letter-spacing:0.01em;}.cls-20{letter-spacing:0em;}.cls-21,.cls-25{fill:none;stroke-miterlimit:10;}.cls-21{stroke:#65ae97;stroke-width:0.65px;}.cls-22,.cls-31{fill:#eeb600;}.cls-23{opacity:0.52;mix-blend-mode:multiply;}.cls-24{fill:#fcf0cc;}.cls-25{stroke:#fff;stroke-width:0.76px;}.cls-26{fill:#fff;}.cls-27{font-size:19.64px;}.cls-28{letter-spacing:-0.01em;}.cls-29{letter-spacing:-0.01em;}.cls-30{letter-spacing:0em;}.cls-31{opacity:0.1;}.cls-32{font-size:8.13px;font-family:OpenSans-SemiBold, OpenSans SemiBold;font-weight:700;}.cls-33{letter-spacing:-0.04em;}</style></defs><title>vicando-include</title><g class="cls-1"><g id="Слой_1" data-name="Слой 1"><path class="cls-2" d="M748.39,588.27H368.59V323h379.8Zm-378.83-1H747.42V324H369.56Z" transform="translate(-15.82 16.46)"/><text class="cls-3" transform="translate(484.05 29.79) rotate(0.14)"><tspan class="cls-4">M</tspan><tspan x="10.05" y="0">easu</tspan><tspan class="cls-5" x="33.99" y="0">r</tspan><tspan x="37.93" y="0">eme</tspan><tspan class="cls-6" x="60.71" y="0">n</tspan><tspan x="67.54" y="0">t</tspan></text><text class="cls-3" transform="translate(791.57 293.3) rotate(0.14)">Lidiar / <tspan class="cls-7" x="38.21" y="0">R</tspan><tspan x="45.03" y="0">adar</tspan></text><text class="cls-3" transform="translate(962.82 136.74) rotate(0.14)">Gps / <tspan class="cls-4" x="29.5" y="0">M</tspan><tspan x="39.55" y="0">aping</tspan></text><text class="cls-3" transform="translate(54.93 136.74) rotate(0.14)"><tspan class="cls-8">V</tspan><tspan x="6.72" y="0">ideo </tspan><tspan class="cls-9" x="32.28" y="0">G</tspan><tspan x="40.36" y="0">o p</tspan><tspan class="cls-10" x="56.86" y="0">r</tspan><tspan x="60.79" y="0">o</tspan></text><text class="cls-3" transform="translate(236.39 315.88) rotate(0.14)"><tspan class="cls-11">A</tspan><tspan class="cls-12" x="7.44" y="0">c</tspan><tspan x="12.93" y="0">oustics</tspan></text><text class="cls-3" transform="translate(236.07 95.46) rotate(0.14)">Bio sensor</text><text class="cls-13" transform="translate(380.31 161.65) rotate(0.14)"><tspan class="cls-14">E</tspan><tspan class="cls-15" x="6.33" y="0">y</tspan><tspan x="12.35" y="0">e t</tspan><tspan class="cls-16" x="25.99" y="0">r</tspan><tspan x="30.19" y="0">a</tspan><tspan class="cls-17" x="36.48" y="0">k</tspan><tspan x="42.83" y="0">ing</tspan></text><text class="cls-3" transform="translate(597.03 116.43) rotate(0.14)"><tspan class="cls-18">V</tspan><tspan x="6.51" y="0">ehicle Ne</tspan><tspan class="cls-19" x="54.23" y="0">t</tspan><tspan class="cls-5" x="58.45" y="0">w</tspan><tspan x="67.45" y="0">o</tspan><tspan class="cls-20" x="74.26" y="0">r</tspan><tspan x="78.37" y="0">ks Dia</tspan><tspan class="cls-12" x="108.88" y="0">g</tspan><tspan x="115.74" y="0">nostic</tspan></text><path class="cls-21" d="M276.68,226.42" transform="translate(-15.82 16.46)"/><path class="cls-22" d="M524.35,337.25l3,6,3-6h3.08l-6.16,11-6.18-11Z" transform="translate(-15.82 16.46)"/><path class="cls-22" d="M534.54,333.65a1.55,1.55,0,0,1,.47-1.16,1.61,1.61,0,0,1,1.17-.45,1.56,1.56,0,0,1,1.63,1.61,1.57,1.57,0,0,1-.46,1.17,1.76,1.76,0,0,1-2.35,0A1.54,1.54,0,0,1,534.54,333.65Zm3.06,3.6v10.37h-2.84V337.25Z" transform="translate(-15.82 16.46)"/><path class="cls-22" d="M545.25,339.38a2.63,2.63,0,0,0-1.47.41,2.79,2.79,0,0,0-1,1.12,3.2,3.2,0,0,0-.37,1.53,3.26,3.26,0,0,0,.37,1.53,2.92,2.92,0,0,0,1,1.12,2.71,2.71,0,0,0,1.47.41,3.66,3.66,0,0,0,1.33-.26,4.18,4.18,0,0,0,1.17-.68v2.77a5.28,5.28,0,0,1-2.63.63,5.66,5.66,0,0,1-2.88-.73,5.24,5.24,0,0,1-2-2,5.82,5.82,0,0,1,0-5.61,5.31,5.31,0,0,1,2-2,5.76,5.76,0,0,1,2.88-.73,5.18,5.18,0,0,1,2.63.64v2.76a4.16,4.16,0,0,0-1.17-.67A3.46,3.46,0,0,0,545.25,339.38Z" transform="translate(-15.82 16.46)"/><path class="cls-22" d="M557.58,347.62v-.95a4,4,0,0,1-1.44.95,5,5,0,0,1-4.41-.39,5,5,0,0,1-1.84-2,6.29,6.29,0,0,1,0-5.61,5,5,0,0,1,1.84-2,4.89,4.89,0,0,1,2.61-.73,5,5,0,0,1,1.8.34,4,4,0,0,1,1.44.95v-.95h2.82v10.37Zm-.17-3.61a3.36,3.36,0,0,0,.36-1.57,3.4,3.4,0,0,0-.36-1.58,2.78,2.78,0,0,0-1-1.1,2.73,2.73,0,0,0-1.47-.4,2.68,2.68,0,0,0-1.49.42,2.85,2.85,0,0,0-1,1.12,3.56,3.56,0,0,0,0,3.08,2.92,2.92,0,0,0,1,1.12,2.68,2.68,0,0,0,1.49.42,2.78,2.78,0,0,0,2.49-1.51Z" transform="translate(-15.82 16.46)"/><path class="cls-22" d="M567.13,337.25a4.42,4.42,0,0,1,1.71-.34,3.85,3.85,0,0,1,2.78,1.07,4.39,4.39,0,0,1,1.1,3.28v6.36H569.9V342a3.12,3.12,0,0,0-.51-2,1.89,1.89,0,0,0-1.54-.63,1.94,1.94,0,0,0-1.5.65,2.88,2.88,0,0,0-.57,1.94v5.67h-2.84V337.25h2.84v1A3.44,3.44,0,0,1,567.13,337.25Z" transform="translate(-15.82 16.46)"/><path class="cls-22" d="M583,347.62v-.95a4,4,0,0,1-1.45.95,4.69,4.69,0,0,1-1.8.34,4.8,4.8,0,0,1-2.61-.73,5,5,0,0,1-1.84-2,6.29,6.29,0,0,1,0-5.61,5.12,5.12,0,0,1,1.84-2,5,5,0,0,1,4.41-.39,4,4,0,0,1,1.45.95v-6.44h2.82v15.86Zm-.18-3.61a3.37,3.37,0,0,0,.37-1.57,3.41,3.41,0,0,0-.37-1.58,2.75,2.75,0,0,0-2.49-1.5,2.64,2.64,0,0,0-1.48.42,2.78,2.78,0,0,0-1,1.12,3.47,3.47,0,0,0,0,3.08,2.84,2.84,0,0,0,1,1.12,2.64,2.64,0,0,0,1.48.42,2.71,2.71,0,0,0,1.47-.41A2.65,2.65,0,0,0,582.82,344Z" transform="translate(-15.82 16.46)"/><path class="cls-22" d="M598.44,339.61a5.59,5.59,0,0,1,.72,2.83,5.51,5.51,0,0,1-.72,2.8,5.15,5.15,0,0,1-2,2,6.39,6.39,0,0,1-5.93,0,5.13,5.13,0,0,1-2-2,5.51,5.51,0,0,1-.72-2.8,5.59,5.59,0,0,1,.72-2.83,5.1,5.1,0,0,1,2-2,6.47,6.47,0,0,1,5.93,0A5.13,5.13,0,0,1,598.44,339.61Zm-2.5,4.37a3.66,3.66,0,0,0,0-3.08,2.75,2.75,0,0,0-1-1.12,2.87,2.87,0,0,0-3,0,2.83,2.83,0,0,0-1,1.12,3.47,3.47,0,0,0,0,3.08,2.9,2.9,0,0,0,1,1.12,2.87,2.87,0,0,0,3,0A2.82,2.82,0,0,0,595.94,344Z" transform="translate(-15.82 16.46)"/><path class="cls-2" d="M594.73,566.69H390.86V362.83H594.73ZM391.56,566H594V363.52H391.56Z" transform="translate(-15.82 16.46)"/><path class="cls-2" d="M662.64,566.69h-55v-55h55ZM608.31,566H662V512.36H608.31Z" transform="translate(-15.82 16.46)"/><path class="cls-2" d="M729.84,566.69h-55v-55h55ZM675.51,566h53.63V512.36H675.51Z" transform="translate(-15.82 16.46)"/><path class="cls-2" d="M729.84,501.89H607.62V362.83H729.84Zm-121.53-.69H729.14V363.52H608.31Z" transform="translate(-15.82 16.46)"/><path class="cls-2" d="M461.41,433.37H390.58V362.55h70.83Zm-70.13-.69h69.43V363.24H391.28Z" transform="translate(-15.82 16.46)"/><path class="cls-2" d="M635.13,566.69a27.51,27.51,0,1,1,27.51-27.51A27.54,27.54,0,0,1,635.13,566.69Zm0-54.33A26.82,26.82,0,1,0,662,539.18,26.85,26.85,0,0,0,635.13,512.36Z" transform="translate(-15.82 16.46)"/><path class="cls-2" d="M702.32,566.69a27.51,27.51,0,1,1,27.52-27.51A27.54,27.54,0,0,1,702.32,566.69Zm0-54.33a26.82,26.82,0,1,0,26.82,26.82A26.85,26.85,0,0,0,702.32,512.36Z" transform="translate(-15.82 16.46)"/><rect class="cls-2" x="618.96" y="538.32" width="0.69" height="17.32"/><rect class="cls-2" x="633.67" y="534.02" width="17.32" height="0.69" transform="translate(-204.45 463.46) rotate(-33.76)"/><path class="cls-2" d="M713.64,403.85H663.28a3.12,3.12,0,0,1,0-6.24h50.36a3.12,3.12,0,0,1,0,6.24Zm-50.36-5.54a2.42,2.42,0,1,0,0,4.84h50.36a2.42,2.42,0,0,0,0-4.84Z" transform="translate(-15.82 16.46)"/><path class="cls-2" d="M713.64,413.18H663.28a3.12,3.12,0,1,1,0-6.23h50.36a3.12,3.12,0,0,1,0,6.23Zm-50.36-5.54a2.43,2.43,0,0,0,0,4.85h50.36a2.43,2.43,0,0,0,0-4.85Z" transform="translate(-15.82 16.46)"/><path class="cls-2" d="M713.64,422.52H663.28a3.12,3.12,0,1,1,0-6.23h50.36a3.12,3.12,0,0,1,0,6.23ZM663.28,417a2.43,2.43,0,0,0,0,4.85h50.36a2.43,2.43,0,0,0,0-4.85Z" transform="translate(-15.82 16.46)"/><path class="cls-2" d="M713.64,431.86H663.28a3.12,3.12,0,1,1,0-6.23h50.36a3.12,3.12,0,0,1,0,6.23Zm-50.36-5.54a2.43,2.43,0,0,0,0,4.85h50.36a2.43,2.43,0,0,0,0-4.85Z" transform="translate(-15.82 16.46)"/><path class="cls-2" d="M713.64,441.2H663.28a3.12,3.12,0,1,1,0-6.23h50.36a3.12,3.12,0,0,1,0,6.23Zm-50.36-5.54a2.42,2.42,0,1,0,0,4.84h50.36a2.42,2.42,0,0,0,0-4.84Z" transform="translate(-15.82 16.46)"/><path class="cls-2" d="M713.64,450.54H663.28a3.12,3.12,0,0,1,0-6.24h50.36a3.12,3.12,0,0,1,0,6.24ZM663.28,445a2.42,2.42,0,0,0,0,4.84h50.36a2.42,2.42,0,0,0,0-4.84Z" transform="translate(-15.82 16.46)"/><path class="cls-2" d="M713.64,459.87H663.28a3.12,3.12,0,1,1,0-6.23h50.36a3.12,3.12,0,0,1,0,6.23Zm-50.36-5.54a2.43,2.43,0,0,0,0,4.85h50.36a2.43,2.43,0,0,0,0-4.85Z" transform="translate(-15.82 16.46)"/><path class="cls-2" d="M713.64,469.21H663.28a3.12,3.12,0,1,1,0-6.23h50.36a3.12,3.12,0,0,1,0,6.23Zm-50.36-5.54a2.43,2.43,0,0,0,0,4.85h50.36a2.43,2.43,0,0,0,0-4.85Z" transform="translate(-15.82 16.46)"/><rect class="cls-2" x="605.23" y="416.84" width="30.98" height="0.69"/><rect class="cls-2" x="382.38" y="435.52" width="53.85" height="0.69"/><rect class="cls-2" x="382.38" y="440.69" width="38.29" height="0.69"/><rect class="cls-2" x="605.23" y="394.57" width="95.36" height="0.69"/><rect class="cls-2" x="605.23" y="404.32" width="95.36" height="0.69"/><rect class="cls-2" x="605.23" y="426.18" width="30.98" height="0.69"/><rect class="cls-2" x="605.23" y="435.52" width="30.98" height="0.69"/><rect class="cls-2" x="605.23" y="444.85" width="30.98" height="0.69"/><rect class="cls-2" x="605.23" y="454.19" width="30.98" height="0.69"/><rect class="cls-2" x="605.23" y="463.53" width="30.98" height="0.69"/><rect class="cls-2" x="605.23" y="472.87" width="30.98" height="0.69"/><rect class="cls-2" x="605.23" y="482.21" width="30.98" height="0.69"/><path class="cls-2" d="M716.75,493.12h-96v-14.7h96Zm-95.36-.69h94.67V479.11H621.39Z" transform="translate(-15.82 16.46)"/><polygon class="cls-2" points="382.65 427.41 382.11 426.97 397.75 407.77 408.89 416.06 419.41 413.89 424.18 390.98 430.78 404.21 430.16 404.52 424.45 393.08 420 414.48 408.73 416.8 397.87 408.72 382.65 427.41"/><circle class="cls-22" cx="397.81" cy="408.24" r="2.18"/><circle class="cls-22" cx="424.34" cy="392.03" r="2.18"/><circle class="cls-22" cx="419.73" cy="414.18" r="2.18"/><g class="cls-23"><rect class="cls-24" x="644.69" y="414.42" width="34.67" height="5.54" rx="2.77" ry="2.77"/><rect class="cls-24" x="644.69" y="423.76" width="46.27" height="5.54" rx="2.77" ry="2.77"/><rect class="cls-24" x="644.69" y="433.09" width="51.58" height="5.54" rx="2.77" ry="2.77"/><rect class="cls-24" x="644.69" y="442.43" width="34.67" height="5.54" rx="2.77" ry="2.77"/><rect class="cls-24" x="644.69" y="451.77" width="24.86" height="5.54" rx="2.77" ry="2.77"/><rect class="cls-24" x="644.69" y="461.11" width="49.84" height="5.54" rx="2.77" ry="2.77"/><rect class="cls-24" x="644.69" y="470.45" width="39.48" height="5.54" rx="2.77" ry="2.77"/><rect class="cls-24" x="644.69" y="479.78" width="45.28" height="5.54" rx="2.77" ry="2.77"/><path class="cls-24" d="M412.72,503.24c3.59-6.57,8.62-36,20.8-27.69,7.4,5,5.29,21.73,16.08,23.85,5.26,1,16.13-6.1,19.28-9.63,9.24-10.34,10.39-28.24,24.84-32.83,8.62-2.73,25.64-1.13,26,10.22.36,11.56-20.08,18.65-25.93,28.48-4.52,7.62-1.61,10.35-2.93,17.56-2.12,11.57-13.73,17.26-24.42,12.69-11.4-4.87-18.32-17.57-32.6-7.66-6.15,4.27-6.83,13.09-15.18,5.71C414.08,519.89,410.36,508.12,412.72,503.24Z" transform="translate(-15.82 16.46)"/><path class="cls-24" d="M558.73,407.32c-9.85,11.51-5.57,31.48-5.93,45.57-.32,12.95-7.2,21.7-14.87,31.26-4.85,6.05-8.66,10.29-7.87,18.27.81,8.27,5.2,14.13,13.43,11.22,9.77-3.46,8.81-16.81,18.25-20.55,5.35-2.11,12.27,3,17.41,0,18.74-11-12.36-39.64-11.1-52.88.87-9.26,14.14-15.88,8.75-27C573.23,405.85,564.84,406.61,558.73,407.32Z" transform="translate(-15.82 16.46)"/><path class="cls-24" d="M476.38,398c16.37,11,35.94,4.18,50.65-5.47,8.28-5.43,14.74-8.26,24.51-9,5.58-.44,15.45,2.31,20.29.85,7.34-2.22,5.53-6.52-.82-10.75-9.92-6.61-22.4-3.67-33.29-2.74-17.24,1.48-35.73,0-52.83,2.49-6.25.93-12.69,4.05-15.34,10.22C467.48,388.37,467.42,396.38,476.38,398Z" transform="translate(-15.82 16.46)"/><path class="cls-24" d="M583.34,566.35c0-2.46.76-20.23,0-24.48-2.13-12.19-16.71-11.53-27.42-11.46-17.48.11-27.47,11.69-41.84,20-15.36,8.89-40.73,13.4-58.08,8.84v7.08Z" transform="translate(-15.82 16.46)"/></g><circle class="cls-22" cx="542.38" cy="666.73" r="25.65"/><path class="cls-25" d="M544.46,644.35a14.74,14.74,0,0,0-1.22,5.91,15,15,0,0,0,21.63,13.39" transform="translate(-15.82 16.46)"/><polygon class="cls-26" points="524.89 662.08 525.23 662.77 528.6 661.1 530.01 664.58 530.72 664.3 528.99 660.05 524.89 662.08"/><path class="cls-25" d="M551.52,636.89a14.8,14.8,0,0,1,6.67-1.58,14.94,14.94,0,0,1,13.73,20.88" transform="translate(-15.82 16.46)"/><polygon class="cls-26" points="554.03 669.15 554.74 668.87 556.15 672.35 559.52 670.68 559.86 671.37 555.76 673.4 554.03 669.15"/><text class="cls-27" transform="translate(462.92 765.5) rotate(0.14)"><tspan class="cls-28">S</tspan><tspan x="9.52" y="0">ynch</tspan><tspan class="cls-29" x="49.36" y="0">r</tspan><tspan class="cls-30" x="55.59" y="0">onus vicando log file</tspan></text><rect class="cls-2" x="87.15" y="255.79" width="0.7" height="2.99"/><path class="cls-2" d="M103.66,471.76H103v-6h.69Zm0-12.08H103v-6h.69Zm0-12.07H103v-6h.69Zm0-12.08H103v-6h.69Zm0-12.07H103v-6h.69Zm0-12.08H103v-6h.69Zm0-12.07H103v-6h.69Zm0-12.08H103v-6h.69Zm0-12.08H103v-6h.69Zm0-12.07H103v-6h.69Zm0-12.08H103v-6h.69Zm0-12.07H103v-6h.69Zm0-12.08H103v-6h.69Zm0-12.07H103v-6h.69Zm0-12.08H103v-6h.69Zm0-12.07H103v-6h.69Zm0-12.08H103v-6h.69Zm0-12.07H103v-6h.69Zm0-12.08H103v-6h.69Z" transform="translate(-15.82 16.46)"/><polygon class="cls-2" points="90.49 497.59 87.15 497.59 87.15 494.25 87.85 494.25 87.85 496.89 90.49 496.89 90.49 497.59"/><path class="cls-2" d="M342.51,481.14h-5.9v-.7h5.9Zm-11.81,0h-5.9v-.7h5.9Zm-11.81,0H313v-.7h5.9Zm-11.81,0h-5.9v-.7h5.9Zm-11.81,0h-5.9v-.7h5.9Zm-11.81,0h-5.9v-.7h5.9Zm-11.81,0h-5.9v-.7h5.9Zm-11.81,0h-5.9v-.7h5.9Zm-11.81,0h-5.9v-.7H248Zm-11.81,0h-5.9v-.7h5.9Zm-11.81,0h-5.9v-.7h5.9Zm-11.81,0h-5.91v-.7h5.91Zm-11.81,0h-5.91v-.7h5.91Zm-11.81,0h-5.91v-.7H189Zm-11.81,0h-5.91v-.7h5.91Zm-11.81,0h-5.91v-.7h5.91Zm-11.81,0h-5.91v-.7h5.91Zm-11.81,0h-5.91v-.7h5.91Zm-11.81,0H124v-.7h5.91Zm-11.81,0h-5.91v-.7h5.91Z" transform="translate(-15.82 16.46)"/><rect class="cls-2" x="332.6" y="496.89" width="2.99" height="0.7"/><rect class="cls-2" x="411.22" y="272.72" width="0.56" height="2.41"/><path class="cls-2" d="M427.59,307.86H427v-4.92h.56Zm0-9.83H427v-4.92h.56Zm0-9.84H427v-4.92h.56Zm0-9.84H427v-4.92h.56Zm0-9.84H427v-4.92h.56Z" transform="translate(-15.82 16.46)"/><rect class="cls-2" x="411.22" y="329.24" width="0.56" height="2.41"/><rect class="cls-2" x="519.58" y="128.39" width="0.56" height="2.41"/><path class="cls-2" d="M536,307.94h-.56V303.1H536Zm0-9.68h-.56v-4.84H536Zm0-9.68h-.56v-4.84H536Zm0-9.68h-.56v-4.84H536Zm0-9.68h-.56v-4.84H536Zm0-9.68h-.56V254.7H536Zm0-9.68h-.56V245H536Zm0-9.68h-.56v-4.84H536Zm0-9.68h-.56v-4.84H536Zm0-9.68h-.56V216H536Zm0-9.68h-.56V206.3H536Zm0-9.68h-.56v-4.84H536Zm0-9.68h-.56v-4.84H536Zm0-9.68h-.56v-4.84H536Zm0-9.68h-.56v-4.84H536Zm0-9.68h-.56V157.9H536Zm0-9.68h-.56v-4.84H536Zm0-9.68h-.56v-4.84H536Zm0-9.68h-.56v-4.84H536Zm0-9.68h-.56v-4.84H536Z" transform="translate(-15.82 16.46)"/><rect class="cls-2" x="519.58" y="329.24" width="0.56" height="2.41"/><rect class="cls-2" x="542.03" y="703.1" width="0.7" height="2.99"/><rect class="cls-2" x="542.03" y="713.52" width="0.7" height="7.43"/><rect class="cls-2" x="542.03" y="728.38" width="0.7" height="2.99"/><rect class="cls-2" x="994.33" y="255.79" width="0.7" height="2.99"/><path class="cls-2" d="M1010.84,475.46h-.7v-6.14h.7Zm0-12.27h-.7v-6.14h.7Zm0-12.27h-.7v-6.14h.7Zm0-12.27h-.7v-6.14h.7Zm0-12.27h-.7v-6.14h.7Zm0-12.27h-.7V408h.7Zm0-12.27h-.7V395.7h.7Zm0-12.27h-.7v-6.14h.7Zm0-12.27h-.7v-6.14h.7Zm0-12.27h-.7v-6.14h.7Zm0-12.27h-.7v-6.14h.7Zm0-12.27h-.7v-6.14h.7Zm0-12.27h-.7v-6.14h.7Zm0-12.27h-.7v-6.14h.7Zm0-12.27h-.7v-6.14h.7Zm0-12.27h-.7v-6.14h.7Zm0-12.27h-.7V273h.7Zm0-12.27h-.7v-6.14h.7Zm0-12.27h-.7v-6.14h.7Z" transform="translate(-15.82 16.46)"/><polygon class="cls-2" points="995.02 501.39 991.68 501.39 991.68 500.69 994.33 500.69 994.33 498.05 995.02 498.05 995.02 501.39"/><path class="cls-2" d="M1001.42,484.94h-6.08v-.7h6.08Zm-12.16,0h-6.07v-.7h6.07Zm-12.15,0H971v-.7h6.08Zm-12.16,0h-6.08v-.7H965Zm-12.15,0h-6.08v-.7h6.08Zm-12.16,0h-6.08v-.7h6.08Zm-12.16,0H922.4v-.7h6.08Zm-12.15,0h-6.08v-.7h6.08Zm-12.16,0h-6.08v-.7h6.08Zm-12.16,0h-6.07v-.7H892Zm-12.15,0h-6.08v-.7h6.08Zm-12.16,0h-6.08v-.7h6.08Zm-12.16,0h-6.07v-.7h6.07Zm-12.15,0h-6.08v-.7h6.08Zm-12.16,0h-6.08v-.7h6.08Zm-12.16,0H813v-.7h6.07Zm-12.15,0h-6.08v-.7h6.08Zm-12.16,0h-6.08v-.7h6.08Zm-12.16,0h-6.07v-.7h6.07Z" transform="translate(-15.82 16.46)"/><rect class="cls-2" x="751.64" y="500.69" width="2.99" height="0.7"/><rect class="cls-2" x="258.24" y="405.69" width="0.7" height="2.99"/><path class="cls-2" d="M274.75,426.32h-.7v-5.68h.7Zm0-11.37h-.7v-5.68h.7Zm0-11.36h-.7v-5.68h.7Z" transform="translate(-15.82 16.46)"/><polygon class="cls-2" points="261.58 451.8 258.24 451.8 258.24 448.46 258.93 448.46 258.93 451.1 261.58 451.1 261.58 451.8"/><path class="cls-2" d="M342,435.34H335.5v-.69H342Zm-12.91,0h-6.46v-.69h6.46Zm-12.92,0h-6.45v-.69h6.45Zm-12.91,0h-6.46v-.69h6.46Zm-12.91,0h-6.46v-.69h6.46Z" transform="translate(-15.82 16.46)"/><rect class="cls-2" x="332.6" y="451.1" width="2.99" height="0.7"/><rect class="cls-2" x="823.4" y="405.69" width="0.7" height="2.99"/><path class="cls-2" d="M839.92,426.32h-.7v-5.68h.7Zm0-11.37h-.7v-5.68h.7Zm0-11.36h-.7v-5.68h.7Z" transform="translate(-15.82 16.46)"/><polygon class="cls-2" points="824.1 451.8 820.76 451.8 820.76 451.1 823.4 451.1 823.4 448.46 824.1 448.46 824.1 451.8"/><path class="cls-2" d="M830.57,435.34h-6v-.69h6Zm-12,0h-6v-.69h6Zm-12,0h-6v-.69h6Zm-12,0h-6v-.69h6Zm-12,0h-6v-.69h6Z" transform="translate(-15.82 16.46)"/><rect class="cls-2" x="751.64" y="451.1" width="2.99" height="0.7"/><rect class="cls-2" x="639.62" y="223.78" width="0.56" height="2.41"/><path class="cls-2" d="M656,307.88h-.56V303H656Zm0-9.82h-.56v-4.91H656Zm0-9.81h-.56v-4.91H656Zm0-9.82h-.56v-4.91H656Zm0-9.81h-.56v-4.91H656Zm0-9.82h-.56v-4.91H656Zm0-9.81h-.56v-4.91H656Zm0-9.82h-.56v-4.91H656Zm0-9.81h-.56v-4.91H656Zm0-9.82h-.56v-4.91H656Z" transform="translate(-15.82 16.46)"/><rect class="cls-2" x="639.62" y="329.24" width="0.56" height="2.41"/><rect class="cls-2" x="260.52" y="187.49" width="0.7" height="2.99"/><path class="cls-2" d="M277,261.54h-.7v-6.25h.7Zm0-12.5h-.7v-6.25h.7Zm0-12.51h-.7v-6.25h.7Zm0-12.5h-.7v-6.25h.7Zm0-12.5h-.7v-6.25h.7Zm0-12.5h-.7v-6.25h.7Zm0-12.51h-.7v-6.25h.7Z" transform="translate(-15.82 16.46)"/><rect class="cls-2" x="260.52" y="284.25" width="0.7" height="2.99"/><rect class="cls-2" x="595.99" y="667.92" width="2.99" height="0.7"/><path class="cls-2" d="M672.54,652.16h-5.77v-.7h5.77Zm-11.55,0h-5.77v-.7H661Zm-11.54,0h-5.78v-.7h5.78Zm-11.55,0h-5.78v-.7h5.78Zm-11.55,0h-5.78v-.7h5.78Z" transform="translate(-15.82 16.46)"/><polygon class="cls-2" points="665.84 668.61 662.5 668.61 662.5 667.92 665.14 667.92 665.14 665.27 665.84 665.27 665.84 668.61"/><path class="cls-2" d="M681.66,641.78H681v-7h.7Zm0-14.06H681v-7h.7Z" transform="translate(-15.82 16.46)"/><rect class="cls-2" x="665.14" y="627.12" width="0.7" height="2.99"/><rect class="cls-2" x="490.21" y="667.92" width="2.99" height="0.7"/><path class="cls-2" d="M500.12,652.16h-5.91v-.7h5.91Zm-11.82,0h-5.91v-.7h5.91Zm-11.82,0h-5.91v-.7h5.91Zm-11.82,0h-5.91v-.7h5.91Zm-11.82,0h-5.91v-.7h5.91Z" transform="translate(-15.82 16.46)"/><polygon class="cls-2" points="425.2 668.61 421.86 668.61 421.86 665.27 422.56 665.27 422.56 667.92 425.2 667.92 425.2 668.61"/><path class="cls-2" d="M438.37,641.78h-.69v-7h.69Zm0-14.06h-.69v-7h.69Z" transform="translate(-15.82 16.46)"/><rect class="cls-2" x="421.86" y="627.12" width="0.7" height="2.99"/><path class="cls-2" d="M535.68,101.38h0a35,35,0,0,1,0-70.09h0a35,35,0,0,1,0,70.09Zm0-69.39a34.35,34.35,0,0,0,0,68.7h0A34.35,34.35,0,0,0,570,66.35h0A34.35,34.35,0,0,0,535.69,32Z" transform="translate(-15.82 16.46)"/><path class="cls-2" d="M523.35,77.46h0c-3.25,0-5.92-1.41-8.42-4.44a46.08,46.08,0,0,1-4.2-6.52c-2.32-4-4.71-8.24-8.42-9.88l.28-.63c3.92,1.72,6.37,6,8.74,10.17a47.74,47.74,0,0,0,4.13,6.42c2.36,2.86,4.87,4.19,7.89,4.19h0c5.94,0,9-5.34,12-10.52h0l0-.09c3.07-5.38,6.26-10.95,12.62-10.95h0c3.24,0,5.92,1.41,8.42,4.44a47.92,47.92,0,0,1,4.2,6.52c2.31,4,4.71,8.25,8.41,9.88l-.28.63c-3.91-1.72-6.37-6-8.74-10.17a47.69,47.69,0,0,0-4.12-6.42c-2.37-2.85-4.87-4.18-7.89-4.19h0c-5.93,0-8.88,5.1-12,10.53l0,.08C532.9,71.9,529.73,77.46,523.35,77.46Z" transform="translate(-15.82 16.46)"/><path class="cls-2" d="M543.07,73.43h0c-3.9,0-5.83-3.52-7.7-6.92l0-.09c-1.83-3.34-3.58-6.47-7.05-6.48h0c-3.49,0-5.24,3.19-7.1,6.56-1.54,2.81-3.14,5.72-5.87,6.63a5.8,5.8,0,0,1-1.83.29h0c-3.9,0-5.83-3.52-7.69-6.92-1.27-2.31-2.58-4.7-4.47-5.84l.35-.6c2.06,1.24,3.42,3.71,4.73,6.11,1.84,3.37,3.59,6.55,7.08,6.55h0a5,5,0,0,0,1.61-.25c2.47-.82,4-3.61,5.49-6.3,1.86-3.4,3.8-6.92,7.7-6.92h0c3.91,0,5.84,3.52,7.7,6.92l0,.08c1.84,3.35,3.59,6.48,7.05,6.49h0c3.49,0,5.24-3.19,7.09-6.56,1.55-2.82,3.15-5.74,5.9-6.64a6,6,0,0,1,1.8-.28h0c3.9,0,5.83,3.52,7.69,6.92,1.27,2.31,2.58,4.7,4.48,5.84l-.36.6c-2-1.24-3.41-3.71-4.72-6.11-1.85-3.37-3.6-6.55-7.09-6.55h0a5.23,5.23,0,0,0-1.59.24c-2.48.82-4,3.61-5.5,6.31C548.9,69.91,547,73.43,543.07,73.43Z" transform="translate(-15.82 16.46)"/><rect class="cls-2" x="495" y="58.24" width="0.69" height="5.26"/><rect class="cls-2" x="500.13" y="54.01" width="0.69" height="9.49"/><rect class="cls-2" x="505.27" y="51.14" width="0.69" height="16.58"/><rect class="cls-2" x="510.41" y="49.3" width="0.69" height="14.2"/><rect class="cls-2" x="515.54" y="48.32" width="0.69" height="19.41"/><rect class="cls-2" x="520.69" y="48.12" width="0.69" height="15.39"/><rect class="cls-2" x="525.82" y="48.67" width="0.69" height="19.06"/><rect class="cls-2" x="530.96" y="50.03" width="0.69" height="13.48"/><rect class="cls-2" x="536.1" y="52.31" width="0.69" height="15.22"/><rect class="cls-2" x="541.23" y="55.74" width="0.69" height="7.77"/><path class="cls-2" d="M290.35,355.1l-.26-.64a9.6,9.6,0,0,0,0-17.77l.26-.65a10.29,10.29,0,0,1,0,19.06Z" transform="translate(-15.82 16.46)"/><path class="cls-2" d="M286.48,347.78v-.69a1.52,1.52,0,0,0,0-3v-.7a2.21,2.21,0,0,1,0,4.42Z" transform="translate(-15.82 16.46)"/><path class="cls-2" d="M293.49,358.18l-.34-.61a13.73,13.73,0,0,0,0-24l.34-.61a14.43,14.43,0,0,1,0,25.22Z" transform="translate(-15.82 16.46)"/><path class="cls-2" d="M297.09,360.46l-.36-.59a16.88,16.88,0,0,0,0-28.6l.36-.59a17.56,17.56,0,0,1,0,29.78Z" transform="translate(-15.82 16.46)"/><path class="cls-2" d="M276.05,364.64c-6.6,0-10.39-5.73-10.44-5.8L253.46,347a17.88,17.88,0,1,1,30.32-12.84h-.69a17.19,17.19,0,1,0-29.15,12.34l12.21,11.94c.26.38,5.34,8,14.11,4.74a5.85,5.85,0,0,0,3-3.69,6,6,0,0,0-.85-4.17l.57-.39a6,6,0,0,1-2.4,8.88A12.74,12.74,0,0,1,276.05,364.64Z" transform="translate(-15.82 16.46)"/><path class="cls-2" d="M260.05,343.87a11.71,11.71,0,0,1-2.13-11.11,10.4,10.4,0,0,1,7.6-6.77l.17.68a9.7,9.7,0,0,0-7.11,6.31,11.16,11.16,0,0,0,2,10.45Z" transform="translate(-15.82 16.46)"/><path class="cls-2" d="M278.3,139.69a2.61,2.61,0,0,1-1.76-.66l-8.84-7.82,0,0a8.72,8.72,0,0,1,5.69-14.65,8.78,8.78,0,0,1,4.88,1,8.73,8.73,0,0,1,12.9,7.13h0a8.68,8.68,0,0,1-2.33,6.48l0,0-.27.25L280.06,139A2.66,2.66,0,0,1,278.3,139.69ZM268.48,131l8.52,7.54a2,2,0,0,0,2.6,0l8.54-7.57a8,8,0,0,0-9.67-12.67l-.17.1-.17-.1a8,8,0,0,0-9.67,12.67Z" transform="translate(-15.82 16.46)"/><path class="cls-2" d="M294.77,144.36l-.5-.48a22.46,22.46,0,0,0,.16-31.4l.5-.49a23.15,23.15,0,0,1-.16,32.37Z" transform="translate(-15.82 16.46)"/><path class="cls-2" d="M261.83,144.36a23.13,23.13,0,0,1-.16-32.36l.5.48a22.45,22.45,0,0,0,.15,31.4Z" transform="translate(-15.82 16.46)"/><path class="cls-2" d="M299.88,149.48l-.49-.49a29.69,29.69,0,0,0,.16-41.63l.49-.48a30.35,30.35,0,0,1-.16,42.6Z" transform="translate(-15.82 16.46)"/><path class="cls-2" d="M256.71,149.48a30.38,30.38,0,0,1-.16-42.6l.5.48A29.67,29.67,0,0,0,257.2,149Z" transform="translate(-15.82 16.46)"/><path class="cls-2" d="M304.11,153.71l-.49-.49a35.64,35.64,0,0,0,.16-50.08l.49-.49a36.34,36.34,0,0,1-.16,51.06Z" transform="translate(-15.82 16.46)"/><path class="cls-2" d="M252.48,153.71a36.36,36.36,0,0,1-.16-51.06l.5.49a35.65,35.65,0,0,0,.15,50.08Z" transform="translate(-15.82 16.46)"/><path class="cls-2" d="M126.06,209.76H82.82A10.83,10.83,0,0,1,72,199V162.88a10.83,10.83,0,0,1,10.82-10.82h34v.69h-34a10.15,10.15,0,0,0-10.13,10.13V199a10.14,10.14,0,0,0,10.13,10.12h43.24A10.14,10.14,0,0,0,136.19,199V173.1h.69V199A10.83,10.83,0,0,1,126.06,209.76Z" transform="translate(-15.82 16.46)"/><path class="cls-2" d="M124.6,177.76a13.09,13.09,0,1,1,13.09-13.09A13.1,13.1,0,0,1,124.6,177.76Zm0-25.48a12.39,12.39,0,0,0,0,24.78h0a12.39,12.39,0,1,0,0-24.78Z" transform="translate(-15.82 16.46)"/><path class="cls-2" d="M124.6,173.29a8.62,8.62,0,1,1,8.61-8.62A8.63,8.63,0,0,1,124.6,173.29Zm0-16.54a7.92,7.92,0,1,0,0,15.84h0a7.92,7.92,0,1,0,0-15.84Z" transform="translate(-15.82 16.46)"/><path class="cls-2" d="M80.58,163.94a2.25,2.25,0,1,1,2.25-2.24A2.24,2.24,0,0,1,80.58,163.94Zm0-3.8a1.56,1.56,0,1,0,1.55,1.56A1.56,1.56,0,0,0,80.58,160.14Z" transform="translate(-15.82 16.46)"/><rect class="cls-2" x="72.44" y="168.65" width="0.69" height="57.64"/><path class="cls-2" d="M127.87,204.69H108.24a1.83,1.83,0,1,1,0-3.65h19.63a1.83,1.83,0,1,1,0,3.65Zm-19.63-2.95a1.13,1.13,0,0,0,0,2.26h19.63a1.13,1.13,0,1,0,0-2.26Z" transform="translate(-15.82 16.46)"/><path class="cls-2" d="M1032.42,212.69h0l-38.32,0a9.63,9.63,0,0,1-9.63-9.63v-32a9.64,9.64,0,0,1,9.63-9.63h4.29v.69H994.1a9,9,0,0,0-8.93,8.94l0,32a8.95,8.95,0,0,0,8.94,8.94l38.32,0h0a8.95,8.95,0,0,0,8.93-8.93V180.15h.7v22.92a9.65,9.65,0,0,1-9.63,9.62Z" transform="translate(-15.82 16.46)"/><path class="cls-2" d="M1013.26,201.62,998.9,176.21a16.55,16.55,0,0,1,2.71-19.79,16.36,16.36,0,0,1,11.66-4.83h0a16.39,16.39,0,0,1,11.67,4.84h0a16.5,16.5,0,0,1,2.69,19.79Zm0-49.34a15.66,15.66,0,0,0-11.17,4.63,15.84,15.84,0,0,0-2.59,19l13.75,24.34L1027,175.88a15.81,15.81,0,0,0-13.75-23.6Zm0,21.25h0a5.74,5.74,0,0,1-4.1-1.71,5.8,5.8,0,0,1,4.1-9.9h0a5.81,5.81,0,1,1,0,11.61Zm0-10.91a5.1,5.1,0,0,0-3.61,8.71,5,5,0,0,0,3.61,1.5h0a5.07,5.07,0,0,0,3.61-1.49h0a5.1,5.1,0,0,0-3.6-8.72Z" transform="translate(-15.82 16.46)"/><path class="cls-2" d="M1042.1,176.8h-.69v-6.31a8.3,8.3,0,0,0-8.31-8.31h-3.41v-.69h3.4a9,9,0,0,1,9,9Z" transform="translate(-15.82 16.46)"/><rect class="cls-2" x="986.36" y="196.43" width="23.13" height="0.69" transform="translate(137.05 779.32) rotate(-44.97)"/><rect class="cls-2" x="1028.28" y="184.73" width="0.69" height="23.62" transform="translate(146.24 801.02) rotate(-44.98)"/><path class="cls-2" d="M449.18,234.36H406.69A10.66,10.66,0,0,1,396,223.72V188.28a10.67,10.67,0,0,1,10.65-10.65h42.57v.7H406.69a10,10,0,0,0-9.95,9.95v35.44a10,10,0,0,0,9.95,9.95h42.49a10,10,0,0,0,9.95-9.95V189.14h.69v34.58A10.65,10.65,0,0,1,449.18,234.36Z" transform="translate(-15.82 16.46)"/><path class="cls-2" d="M427.42,218.26h0a12.87,12.87,0,0,1,0-25.73h0a12.87,12.87,0,1,1,0,25.73Zm0-25a12.18,12.18,0,1,0,0,24.35h0a12.18,12.18,0,0,0,0-24.35Z" transform="translate(-15.82 16.46)"/><path class="cls-2" d="M427.41,212.33a6.94,6.94,0,0,1-6.68-8.79l.67.19a6.33,6.33,0,0,0-.23,1.66,6.25,6.25,0,0,0,12.49,0,6.25,6.25,0,0,0-6.24-6.24,6.22,6.22,0,0,0-2.69.6l-.29-.63a6.94,6.94,0,1,1,3,13.2Z" transform="translate(-15.82 16.46)"/><path class="cls-2" d="M451.28,189.77a3,3,0,1,1,3-3A3,3,0,0,1,451.28,189.77Zm0-5.25a2.28,2.28,0,1,0,2.28,2.28A2.29,2.29,0,0,0,451.28,184.52Z" transform="translate(-15.82 16.46)"/><path class="cls-2" d="M427.42,222.54A32.65,32.65,0,0,1,404.28,213l-7.58-7.59,7.58-7.58a32.72,32.72,0,0,1,46.27,0l7.58,7.58L450.55,213A32.65,32.65,0,0,1,427.42,222.54Zm-22.65-10a32.07,32.07,0,0,0,45.29,0l7.09-7.1-7.09-7.09a32,32,0,0,0-45.29,0l-7.09,7.09Z" transform="translate(-15.82 16.46)"/><rect class="cls-2" x="411.15" y="183.44" width="0.69" height="17.22"/><rect class="cls-2" x="411.15" y="242.37" width="0.69" height="17.22"/><rect class="cls-2" x="432.35" y="221.17" width="17.22" height="0.69"/><rect class="cls-2" x="373.42" y="221.17" width="17.22" height="0.69"/><path class="cls-2" d="M654.73,179h0a18.36,18.36,0,0,1,0-36.72h0a18.37,18.37,0,0,1,18.35,18.37h0A18.38,18.38,0,0,1,654.73,179Zm0-36a17.67,17.67,0,0,0,0,35.33h0a17.67,17.67,0,0,0,0-35.33Z" transform="translate(-15.82 16.46)"/><path class="cls-2" d="M654.72,179h0c-2.79,0-5.4-1.94-7.35-5.46a27.13,27.13,0,0,1-3-12.9c0-10.12,4.64-18.36,10.33-18.36h0c2.79,0,5.4,1.94,7.35,5.46a27.17,27.17,0,0,1,3,12.91C665.05,170.78,660.41,179,654.72,179Zm0-36c-5.31,0-9.63,7.92-9.64,17.66A26.4,26.4,0,0,0,648,173.22c1.81,3.28,4.21,5.1,6.74,5.1h0c5.31,0,9.63-7.93,9.64-17.66a26.37,26.37,0,0,0-2.88-12.57c-1.81-3.29-4.21-5.1-6.74-5.1Z" transform="translate(-15.82 16.46)"/><rect class="cls-2" x="620.9" y="176.76" width="36.42" height="0.69"/><rect class="cls-2" x="640.21" y="173.25" width="0.69" height="22.99" transform="translate(144.54 663.64) rotate(-60.01)"/><rect class="cls-2" x="629.06" y="136.17" width="23.15" height="0.69" transform="translate(1.79 355.17) rotate(-30.01)"/><rect class="cls-2" x="668.27" y="124.68" width="0.69" height="23.41" transform="translate(200.27 663.59) rotate(-59.99)"/><rect class="cls-2" x="610.62" y="165.47" width="0.69" height="23.25"/><rect class="cls-2" x="657.04" y="184.53" width="23.28" height="0.69" transform="translate(-18.64 375.68) rotate(-30.01)"/><rect class="cls-2" x="666.53" y="165.48" width="0.69" height="23.23"/><path class="cls-2" d="M682.69,181.67a4.88,4.88,0,1,1,4.88-4.88A4.89,4.89,0,0,1,682.69,181.67Zm0-9.07a4.19,4.19,0,1,0,4.19,4.19A4.2,4.2,0,0,0,682.69,172.6Z" transform="translate(-15.82 16.46)"/><path class="cls-2" d="M654.51,197.51a4.89,4.89,0,1,1,4.88-4.88A4.89,4.89,0,0,1,654.51,197.51Zm0-9.07a4.19,4.19,0,1,0,4.18,4.19A4.2,4.2,0,0,0,654.51,188.44Z" transform="translate(-15.82 16.46)"/><path class="cls-2" d="M654.51,133.22a4.89,4.89,0,1,1,4.88-4.88A4.89,4.89,0,0,1,654.51,133.22Zm0-9.07a4.19,4.19,0,1,0,4.18,4.19A4.2,4.2,0,0,0,654.51,124.15Z" transform="translate(-15.82 16.46)"/><path class="cls-2" d="M626.64,181.67a4.88,4.88,0,1,1,4.88-4.88A4.89,4.89,0,0,1,626.64,181.67Zm0-9.07a4.19,4.19,0,1,0,4.18,4.19A4.2,4.2,0,0,0,626.64,172.6Z" transform="translate(-15.82 16.46)"/><path class="cls-2" d="M682.69,149.37a4.88,4.88,0,1,1,4.88-4.88A4.89,4.89,0,0,1,682.69,149.37Zm0-9.07a4.19,4.19,0,1,0,4.19,4.19A4.2,4.2,0,0,0,682.69,140.3Z" transform="translate(-15.82 16.46)"/><path class="cls-2" d="M626.64,149.37a4.88,4.88,0,1,1,4.88-4.88A4.89,4.89,0,0,1,626.64,149.37Zm0-9.07a4.19,4.19,0,1,0,4.18,4.19A4.2,4.2,0,0,0,626.64,140.3Z" transform="translate(-15.82 16.46)"/><rect class="cls-2" x="638.34" y="195.11" width="0.69" height="9.43"/><rect class="cls-2" x="638.34" y="149.33" width="0.69" height="9.78"/><rect class="cls-2" x="638.34" y="176.98" width="0.69" height="0.27"/><rect class="cls-2" x="629.94" y="171.78" width="9.86" height="0.69" transform="translate(-16.8 357.06) rotate(-30.01)"/><polygon class="cls-2" points="638.86 177.54 638.52 176.94 638.75 176.81 638.91 177.1 639.17 177.35 639.1 177.41 638.86 177.54"/><rect class="cls-2" x="669.67" y="148.87" width="9.76" height="0.69" transform="translate(-0.02 373.83) rotate(-30.01)"/><polygon class="cls-2" points="623.05 168.58 614.44 163.74 614.61 163.44 614.61 163.09 614.71 163.09 623.39 167.97 623.05 168.58"/><polygon class="cls-2" points="638.77 177.42 638.52 177.28 638.86 176.68 639.08 176.8 638.77 177.42"/><rect class="cls-2" x="674.33" y="167" width="0.69" height="9.75" transform="translate(178.26 692.07) rotate(-60.64)"/><polygon class="cls-2" points="648.09 182.47 648.09 182.46 648.78 182.46 648.09 182.47"/><polygon class="cls-2" points="696.5 179.07 693.44 166.43 683.89 166.43 683.89 165.73 693.99 165.73 696.62 176.61 703.18 157.56 707.87 168.46 729.82 168.46 729.82 169.16 707.42 169.16 703.25 159.48 696.5 179.07"/><rect class="cls-2" x="689.91" y="186.04" width="17.31" height="0.69"/><rect class="cls-2" x="713.56" y="186.04" width="21.54" height="0.69"/><rect class="cls-2" x="689.91" y="190.69" width="17.31" height="0.69"/><rect class="cls-2" x="713.56" y="190.69" width="21.54" height="0.69"/><rect class="cls-2" x="689.91" y="195.76" width="17.31" height="0.69"/><rect class="cls-2" x="713.56" y="195.76" width="21.54" height="0.69"/><path class="cls-2" d="M841.39,361.09h0a35,35,0,0,1-28.25-55.76l.56.41a34.35,34.35,0,0,0,27.69,54.66h0a34.36,34.36,0,1,0-19.75-62.47l-.4-.56a35,35,0,1,1,20.15,63.72Z" transform="translate(-15.82 16.46)"/><path class="cls-2" d="M856.35,307.33a24.06,24.06,0,0,0-11.27-5l.11-.68a24.57,24.57,0,0,1,11.59,5.1Z" transform="translate(-15.82 16.46)"/><path class="cls-2" d="M827.65,306.42l-.39-.57a24.33,24.33,0,0,1,10.35-4.17l.11.69A23.68,23.68,0,0,0,827.65,306.42Z" transform="translate(-15.82 16.46)"/><path class="cls-2" d="M816.77,327.14c0-.36,0-.73,0-1.1a24.39,24.39,0,0,1,4.76-14.55l.56.41A23.65,23.65,0,0,0,817.44,326c0,.36,0,.71,0,1.07Z" transform="translate(-15.82 16.46)"/><path class="cls-2" d="M841.39,350.7h0a24.72,24.72,0,0,1-23.17-16.26l.33-.11V334h.25l.09.23A24,24,0,0,0,841.38,350h0a24,24,0,0,0,19.94-37.24l.58-.39a24.67,24.67,0,0,1-20.52,38.33Z" transform="translate(-15.82 16.46)"/><path class="cls-2" d="M841.4,339.07h0a13,13,0,0,1-13-13,12.86,12.86,0,0,1,2.48-7.63l.06-.08.49.48-.24-.24.27.21-.06.07a12.35,12.35,0,0,0,10,19.53h0a12.34,12.34,0,1,0-7-22.47l-.4-.57a13,13,0,1,1,7.43,23.73Z" transform="translate(-15.82 16.46)"/><path class="cls-2" d="M841.4,331h0a5,5,0,0,1-4.09-7.85l.57.39a4.3,4.3,0,0,0,3.53,6.76h0a4.3,4.3,0,0,0,4.29-4.29,4.3,4.3,0,0,0-4.29-4.3,4.18,4.18,0,0,0-2.39.72l-.4-.57a4.86,4.86,0,0,1,2.79-.85,5,5,0,0,1,3.51,8.54A4.94,4.94,0,0,1,841.4,331Z" transform="translate(-15.82 16.46)"/><path class="cls-2" d="M859.3,313.72h0a4.1,4.1,0,0,1,0-8.19h0a4.1,4.1,0,0,1,4.09,4.09h0A4.11,4.11,0,0,1,859.3,313.72Zm0-7.5a3.4,3.4,0,1,0,0,6.8h0a3.4,3.4,0,1,0,0-6.8Z" transform="translate(-15.82 16.46)"/><path class="cls-2" d="M841.4,305.84h0a4.08,4.08,0,0,1-4.09-4.1,4.08,4.08,0,0,1,4.09-4.09h0a4.1,4.1,0,0,1,4.1,4.09h0A4.11,4.11,0,0,1,841.4,305.84Zm0-7.5a3.41,3.41,0,0,0-3.4,3.4,3.4,3.4,0,0,0,3.4,3.4h0a3.4,3.4,0,1,0,0-6.8Z" transform="translate(-15.82 16.46)"/><path class="cls-2" d="M817.09,335h0a4,4,0,0,1-2.89-1.2,4.1,4.1,0,0,1,2.89-7h0a4.11,4.11,0,0,1,4.09,4.1h0a4.08,4.08,0,0,1-4.09,4.09Zm0-7.49a3.4,3.4,0,0,0,0,6.8h0a3.4,3.4,0,0,0,3.4-3.4h0a3.37,3.37,0,0,0-1-2.4,3.33,3.33,0,0,0-2.4-1Z" transform="translate(-15.82 16.46)"/><rect class="cls-2" x="831.23" y="294.44" width="0.69" height="35.15" transform="translate(-43.6 552.92) rotate(-35.2)"/><rect class="cls-31" x="408.33" y="744.04" width="27.16" height="16.03" rx="8.02" ry="8.02"/><polygon class="cls-2" points="422.71 783.46 384.61 783.46 384.61 741.65 393.93 733.02 422.71 733.02 422.71 744.04 421.74 744.04 421.74 733.99 394.31 733.99 385.58 742.08 385.58 782.49 421.74 782.49 421.74 760.07 422.71 760.07 422.71 783.46"/><polygon class="cls-2" points="394.82 742.53 385.31 742.53 385.31 741.56 393.85 741.56 393.85 733.69 394.82 733.69 394.82 742.53"/><path class="cls-2" d="M443.29,744.1H432.16a8.5,8.5,0,1,1,0-17h11.13a8.5,8.5,0,1,1,0,17Zm-11.13-16a7.53,7.53,0,0,0,0,15.06h11.13a7.53,7.53,0,1,0,0-15.06Z" transform="translate(-15.82 16.46)"/><text class="cls-32" transform="matrix(1, -0.01, 0.01, 1, 415.02, 755.01)"><tspan class="cls-33">L</tspan><tspan x="3.52" y="0">OG</tspan></text></g></g></svg>